<svg xmlns="http://www.w3.org/2000/svg" viewBox="6 6 20 20"><path d="M16.006 6.5a.5.5 0 0 0-.049.002.5.5 0 0 0-.27.1L13.18 8.48H8.504v3.504l-1.697 1.272a.5.5 0 0 0-.29.637.5.5 0 0 0-.013.115v10.967a.5.5 0 0 0 .002.076.5.5 0 0 0 .02.097.5.5 0 0 0 .017.045.5.5 0 0 0 0 .002.5.5 0 0 0 .021.043.5.5 0 0 0 0 .002.5.5 0 0 0 .168.18.5.5 0 0 0 .002 0 .5.5 0 0 0 .041.025.5.5 0 0 0 .002 0 .5.5 0 0 0 .141.047.5.5 0 0 0 .002 0 .5.5 0 0 0 .047.006.5.5 0 0 0 .002 0 .5.5 0 0 0 .004 0 .5.5 0 0 0 .03.002.5.5 0 0 0 .015 0h17.88a.5.5 0 0 0 .606-.576V14.008a.5.5 0 0 0-.037-.197.5.5 0 0 0-.264-.538l-1.7-1.271V8.48H18.8L16.285 6.6a.5.5 0 0 0-.28-.1zm-.018 1.125 1.143.855h-2.283l1.14-.855zM9.504 9.48h13V14.674l-6.518 4.07-6.482-4.04V9.48zm3 .989v1.062h6.984V10.47h-6.984zm-1 2.031v1.063h9V12.5h-9zm-3 .734v.848l-.617-.385.617-.463zm15 .016.582.436-.582.363v-.799zm-10 1.25v1.063h5V14.5h-5zm11 .104v9.47l-5.217-3.486a.5.5 0 0 0-.283-.09v.002a.5.5 0 0 0-.274.92l4.614 3.08H8.654l4.62-3.08a.5.5 0 0 0-.288-.92.5.5 0 0 0-.267.088l-5.215 3.478v-9.431l1 .623 7.219 4.5.033.021h.006a.5.5 0 0 0 .002.002.5.5 0 0 0 .002 0 .5.5 0 0 0 .013.006.5.5 0 0 0 .076.027.5.5 0 0 0 .03.008.5.5 0 0 0 .02.004.5.5 0 0 0 .003 0 .5.5 0 0 0 .045.006.5.5 0 0 0 .006 0 .5.5 0 0 0 .123-.008.5.5 0 0 0 .02-.004.5.5 0 0 0 .095-.033.5.5 0 0 0 .016-.008h.006l.027-.017a.5.5 0 0 0 .006-.004l7.252-4.53 1-.624z" fill="#ffffff"></path></svg>